<?xml version="1.0" standalone="no"?>
<!DOCTYPE svg PUBLIC "-//W3C//DTD SVG 20010904//EN"
 "http://www.w3.org/TR/2001/REC-SVG-20010904/DTD/svg10.dtd">
<svg version="1.0" xmlns="http://www.w3.org/2000/svg"
 width="400.000000pt" height="400.000000pt" viewBox="0 0 400.000000 400.000000"
 preserveAspectRatio="xMidYMid meet">
<metadata>
Created by potrace 1.16, written by Peter Selinger 2001-2019
</metadata>
<g transform="translate(0.000000,400.000000) scale(0.100000,-0.100000)"
fill="#000000" stroke="none">
<path d="M865 3853 c-16 -2 -65 -13 -107 -23 -356 -87 -619 -340 -724 -695
-24 -80 -28 -111 -31 -280 -5 -215 11 -348 66 -539 184 -636 712 -1300 1496
-1884 162 -121 417 -292 434 -292 17 0 211 128 368 242 823 597 1374 1278
1564 1934 55 191 71 324 66 539 -3 169 -7 200 -31 280 -105 355 -361 600 -723
696 -115 30 -348 37 -484 14 -176 -29 -309 -81 -435 -171 -121 -85 -240 -241
-297 -386 -12 -32 -24 -58 -27 -58 -3 0 -15 26 -27 58 -142 366 -491 576 -947
571 -72 -1 -144 -4 -161 -6z m300 -113 c380 -40 633 -242 733 -585 11 -38 24
-91 27 -117 l7 -48 68 0 68 0 7 48 c38 265 198 497 420 607 310 154 735 132
1010 -50 184 -122 295 -284 362 -525 27 -100 25 -408 -5 -550 -66 -318 -170
-557 -377 -870 -292 -439 -777 -905 -1327 -1277 l-158 -107 -144 97 c-754 507
-1360 1171 -1592 1745 -67 166 -94 256 -131 432 -26 125 -25 427 1 530 68 268
226 467 461 580 174 84 355 113 570 90z"/>
</g>
</svg>
